<svg id="Capa_1" enable-background="new 0 0 512 512" height="512" viewBox="0 0 512 512" width="512" xmlns="http://www.w3.org/2000/svg"><path d="m358.377 512h-203.66c-5.959 0-10.79-4.831-10.79-10.79v-41.911c0-5.959 4.831-10.79 10.79-10.79h203.66c5.959 0 10.79 4.831 10.79 10.79v41.911c0 5.959-4.831 10.79-10.79 10.79z" fill="#fdb441"/><path d="m369.167 459.296v41.918c0 5.954-4.832 10.786-10.786 10.786h-203.667c-5.954 0-10.786-4.831-10.786-10.786v-10.652h190.996c5.893 0 10.662-4.77 10.662-10.662v-29.103c0-.783-.082-1.545-.247-2.287h13.042c5.954 0 10.786 4.832 10.786 10.786z" fill="#fea613"/><path d="m244.75 290.11-75.259 29.243c-9.134 3.549-9.189 16.455-.084 20.081l75.088 29.905c7.739 3.082 16.365 3.082 24.104 0l75.088-29.905c9.104-3.626 9.05-16.531-.084-20.081l-75.259-29.243c-7.588-2.949-16.006-2.949-23.594 0z" fill="#e2dee2"/><path d="m343.689 339.434-75.09 29.906c-7.737 3.08-16.369 3.08-24.106 0l-10.086-4.018c2.956-.155 5.882-.793 8.674-1.916l63.84-25.425c7.737-3.08 7.685-14.052-.072-17.07l-63.985-24.858c-2.802-1.092-5.728-1.7-8.674-1.844l10.559-4.1c7.592-2.946 16.009-2.946 23.591 0l75.265 29.247c9.129 3.544 9.191 16.452.084 20.078z" fill="#cbc4cc"/><path d="m358.377 63.49h-203.66c-5.959 0-10.79-4.831-10.79-10.79v-41.91c0-5.959 4.831-10.79 10.79-10.79h203.66c5.959 0 10.79 4.831 10.79 10.79v41.911c0 5.959-4.831 10.789-10.79 10.789z" fill="#fdb441"/><path d="m358.377 202.977h-203.66c-5.959 0-10.79-4.831-10.79-10.79v-41.911c0-5.959 4.831-10.79 10.79-10.79h203.66c5.959 0 10.79 4.831 10.79 10.79v41.911c0 5.96-4.831 10.79-10.79 10.79z" fill="#c0d6f2"/><path d="m358.377 63.49h-203.66c-5.959 0-10.79-4.831-10.79-10.79v-41.91c0-5.959 4.831-10.79 10.79-10.79h203.66c5.959 0 10.79 4.831 10.79 10.79v41.911c0 5.959-4.831 10.789-10.79 10.789z" fill="#c0d6f2"/><path d="m369.166 150.273v41.918c0 5.954-4.832 10.786-10.786 10.786h-203.667c-5.954 0-10.786-4.831-10.786-10.786v-10.652h190.996c5.893 0 10.662-4.77 10.662-10.662v-29.103c0-.783-.082-1.545-.247-2.287h13.042c5.954 0 10.786 4.831 10.786 10.786z" fill="#b2caec"/><g fill="#433f43"><path d="m279.193 91.32c-3.015-2.838-7.762-2.696-10.602.321l-4.544 4.827v-13.322c0-4.142-3.357-7.5-7.5-7.5-4.142 0-7.5 3.358-7.5 7.5v13.738l-5.169-5.326c-2.885-2.972-7.634-3.043-10.605-.158-2.972 2.885-3.043 7.633-.158 10.605l18.051 18.598c1.413 1.456 3.354 2.276 5.382 2.276h.058c2.048-.016 4-.868 5.403-2.36l17.505-18.598c2.839-3.016 2.694-7.762-.321-10.601z"/><path d="m279.193 236.824c-3.015-2.838-7.762-2.696-10.602.321l-4.544 4.827v-13.323c0-4.142-3.357-7.5-7.5-7.5-4.142 0-7.5 3.358-7.5 7.5v13.739l-5.169-5.326c-2.885-2.972-7.634-3.043-10.605-.158-2.972 2.885-3.043 7.633-.158 10.605l18.051 18.598c1.413 1.456 3.354 2.276 5.382 2.276h.058c2.048-.016 4-.868 5.403-2.36l17.505-18.598c2.839-3.015 2.694-7.762-.321-10.601z"/><path d="m430.647 322.333h-37.348c-4.143 0-7.5 3.358-7.5 7.5s3.357 7.5 7.5 7.5h37.348c1.813 0 3.289 1.476 3.289 3.29v128.843c0 1.814-1.476 3.29-3.289 3.29h-19.6l5.045-4.896c2.973-2.885 3.043-7.633.158-10.605s-7.633-3.043-10.605-.158l-18.599 18.051c-1.47 1.426-2.292 3.392-2.276 5.439s.868 4 2.359 5.404l18.599 17.504c1.449 1.363 3.296 2.039 5.14 2.039 1.995 0 3.986-.792 5.463-2.36 2.839-3.016 2.694-7.763-.321-10.602l-5.118-4.816h19.756c10.085 0 18.289-8.205 18.289-18.29v-128.844c-.001-10.085-8.205-18.289-18.29-18.289z"/><path d="m118.701 320.852h-37.347c-1.814 0-3.29-1.476-3.29-3.29v-128.843c0-1.814 1.476-3.29 3.29-3.29h19.6l-5.044 4.896c-2.972 2.885-3.043 7.633-.158 10.605 1.471 1.515 3.425 2.276 5.382 2.276 1.882 0 3.766-.704 5.223-2.118l18.598-18.051c1.47-1.426 2.292-3.392 2.276-5.439-.016-2.048-.869-4-2.36-5.404l-18.598-17.504c-3.016-2.839-7.763-2.695-10.602.321s-2.695 7.763.321 10.602l5.117 4.816h-19.755c-10.085 0-18.29 8.205-18.29 18.29v128.843c0 10.085 8.205 18.29 18.29 18.29h37.347c4.142 0 7.5-3.358 7.5-7.5s-3.358-7.5-7.5-7.5z"/></g><path d="m369.167 10.786v41.918c0 5.954-4.832 10.786-10.786 10.786h-203.667c-5.954 0-10.786-4.831-10.786-10.786v-10.652h190.996c5.893 0 10.662-4.77 10.662-10.662v-29.103c0-.783-.082-1.545-.247-2.287h13.042c5.954 0 10.786 4.832 10.786 10.786z" fill="#b2caec"/></svg>