<?xml version="1.0" encoding="iso-8859-1"?>
<!-- Generator: Adobe Illustrator 19.0.0, SVG Export Plug-In . SVG Version: 6.00 Build 0)  -->
<svg version="1.1" id="Capa_1" xmlns="http://www.w3.org/2000/svg" xmlns:xlink="http://www.w3.org/1999/xlink" x="0px" y="0px"
	 viewBox="0 0 512 512" style="enable-background:new 0 0 512 512;" xml:space="preserve">
<g>
	<path style="fill:#FFFFFF;" d="M412.39,42.4h-204V20c0-6.4-4.8-12-12-12h-96c-7.2,0-12,5.6-12,12v34.4v187.2c0,6.4,5.6,12,12,12h96
		h216c6.4,0,12-5.6,12-12V54.4C424.39,48,419.59,42.4,412.39,42.4z"/>
	<path style="fill:#FFFFFF;" d="M437.99,107.2h-236.8V81.6c0-8-6.4-14.4-14.4-14.4h-112c-8,0-14.4,6.4-14.4,14.4v40v196
		c0,8,6.4,14.4,14.4,14.4h112h251.2c8,0,14.4-6.4,14.4-14.4v-196C452.39,113.6,445.99,107.2,437.99,107.2z"/>
</g>
<rect x="89.19" y="140.8" style="fill:#2EA2DB;" width="335.2" height="163.2"/>
<g>
	<rect x="378.79" y="172" style="fill:#193651;" width="16" height="16"/>
	<rect x="378.79" y="213.6" style="fill:#193651;" width="16" height="16"/>
	<rect x="378.79" y="255.2" style="fill:#193651;" width="16" height="16"/>
</g>
<g>
	<rect x="117.99" y="183.2" style="fill:#FFFFFF;" width="148.8" height="26.4"/>
	<rect x="117.99" y="237.6" style="fill:#FFFFFF;" width="148.8" height="26.4"/>
</g>
<path style="fill:#D3D7DA;" d="M458.79,504L458.79,504c25.6,0,45.6-20.8,45.6-45.6l0,0c0-25.6-20.8-45.6-45.6-45.6l0,0
	c-25.6,0-45.6,20.8-45.6,45.6l0,0C413.19,483.2,433.19,504,458.79,504z"/>
<path style="fill:#FDBF5E;" d="M256.39,504L256.39,504c25.6,0,45.6-20.8,45.6-45.6l0,0c0-25.6-20.8-45.6-45.6-45.6l0,0
	c-25.6,0-45.6,20.8-45.6,45.6l0,0C210.79,483.2,230.79,504,256.39,504z"/>
<path style="fill:#D3D7DA;" d="M53.99,504L53.99,504c25.6,0,45.6-20.8,45.6-45.6l0,0c0-25.6-20.8-45.6-45.6-45.6l0,0
	c-25.6,0-45.6,20.8-45.6,45.6l0,0C8.39,483.2,29.19,504,53.99,504z"/>
<path style="fill:#193651;" d="M458.79,404.8c-16,0-31.2,7.2-40.8,19.2l-133.6-84h153.6c12,0,22.4-9.6,22.4-22.4v-196
	c0-12-9.6-22.4-22.4-22.4h-5.6V54.4c0-11.2-8.8-20-20-20h-196V20c0-11.2-8.8-20-20-20h-96c-11.2,0-20,8.8-20,20v39.2h-5.6
	c-12,0-22.4,9.6-22.4,22.4v236c0,12,9.6,22.4,22.4,22.4h153.6l-133.6,83.2c-9.6-11.2-24.8-19.2-40.8-19.2c-29.6,0-53.6,24-53.6,53.6
	c0,30.4,24,54.4,53.6,54.4s53.6-24,53.6-53.6c0-8-1.6-15.2-4.8-21.6l145.6-90.4v59.2c-25.6,4-45.6,26.4-45.6,52.8
	c0,29.6,24,53.6,53.6,53.6s53.6-24,53.6-53.6c0-27.2-20-49.6-45.6-52.8v-59.2l144.8,90.4c-3.2,6.4-4.8,13.6-4.8,21.6
	c0,29.6,24,53.6,53.6,53.6s53.6-24,53.6-53.6C512.39,428.8,488.39,404.8,458.79,404.8z M53.99,496c-20.8,0-37.6-16.8-37.6-37.6
	c0-20.8,16.8-37.6,37.6-37.6s37.6,16.8,37.6,37.6S74.79,496,53.99,496z M96.39,20c0-2.4,1.6-4,4-4h96c2.4,0,4,1.6,4,4v30.4h212
	c2.4,0,4,1.6,4,4v44.8h-208V81.6c0-12-9.6-22.4-22.4-22.4h-89.6L96.39,20L96.39,20z M293.99,458.4c0,20.8-16.8,37.6-37.6,37.6
	s-37.6-16.8-37.6-37.6c0-20.8,16.8-37.6,37.6-37.6S293.99,437.6,293.99,458.4z M74.79,324c-3.2,0-6.4-2.4-6.4-6.4v-236
	c0-3.2,2.4-6.4,6.4-6.4h112c3.2,0,6.4,2.4,6.4,6.4v33.6h244.8c3.2,0,6.4,2.4,6.4,6.4v196c0,3.2-2.4,6.4-6.4,6.4H74.79z M458.79,496
	c-20.8,0-37.6-16.8-37.6-37.6c0-20.8,16.8-37.6,37.6-37.6c20.8,0,37.6,16.8,37.6,37.6S479.59,496,458.79,496z"/>
<g>
</g>
<g>
</g>
<g>
</g>
<g>
</g>
<g>
</g>
<g>
</g>
<g>
</g>
<g>
</g>
<g>
</g>
<g>
</g>
<g>
</g>
<g>
</g>
<g>
</g>
<g>
</g>
<g>
</g>
</svg>
