<svg id="Capa_1" enable-background="new 0 0 512 512" height="512" viewBox="0 0 512 512" width="512" xmlns="http://www.w3.org/2000/svg"><g><path d="m433 316.25v99.75h-394s70.9-5.56 137.3-65.33c38.94-32.16 79.03-84.67 159.7-84.67 41.7 0 63.43 33.26 97 50.25z" fill="#ffec80"/><path d="m433 97.22v219.03c-33.57-16.99-55.3-50.25-97-50.25-80.67 0-120.76 52.51-159.7 84.67 35.82-32.24 70.33-80.25 91.7-151.67 40.55-135.5 117.78-124.43 165-101.78z" fill="#ff7d95"/><g><path d="m509.071 408.929-29-29c-3.905-3.905-10.237-3.905-14.143 0-3.905 3.905-3.905 10.237 0 14.143l11.93 11.928h-34.858v-74.774c9.708 3.196 19.625 4.774 30 4.774 5.523 0 10-4.477 10-10s-4.477-10-10-10c-10.575 0-20.244-1.965-30-6.12v-73.88h30c5.523 0 10-4.477 10-10s-4.477-10-10-10h-30v-102.045c14.181 8.48 23.243 16.419 23.37 16.531 1.903 1.685 4.27 2.514 6.626 2.514 2.76 0 5.507-1.136 7.483-3.362 3.666-4.13 3.289-10.451-.842-14.117-.703-.623-17.475-15.391-42.225-27.274-.029-.014-.054-.033-.083-.047-20.45-9.78-40.29-14.75-58.97-14.77h-.02c-10.63 0-20.93 1.64-30.62 4.87-2.53.84-4.59 2.62-5.78 5.01-1.2 2.39-1.39 5.1-.55 7.63 1.37 4.1 5.18 6.85 9.49 6.85 1.07 0 2.13-.18 3.16-.52 7.65-2.55 15.885-3.84 24.375-3.84 12.344 0 29.85 4.645 44.585 10.441v194.704c-5.21-3.581-10.312-7.471-15.563-11.487-19.984-15.284-40.649-31.088-71.436-31.088-38.274 0-68.052 11.312-92.659 26.548l.219-.219c8.284-14.476 15.696-29.977 22.187-46.33h7.253c5.523 0 10-4.477 10-10 0-5.497-4.436-9.954-9.923-9.996 1.57-4.655 3.077-9.364 4.503-14.134 5.5-18.39 11.94-34.72 19.12-48.52 2.55-4.89.64-10.94-4.25-13.49-1.42-.74-3.02-1.13-4.61-1.13-3.75 0-7.15 2.06-8.88 5.38-7.76 14.91-14.67 32.41-20.54 52.02-2.028 6.768-4.207 13.387-6.52 19.87h-18.9c-5.523 0-10 4.477-10 10s4.477 10 10 10h11.126c-18.149 42.965-43.095 78.909-74.467 107.194-.016.015-.034.028-.05.043-48.002 43.212-98.924 57.013-120.609 61.147v-168.383h24c5.523 0 10-4.477 10-10s-4.477-10-10-10h-24v-181.857l11.929 11.929c1.953 1.952 4.512 2.928 7.071 2.928s5.119-.976 7.071-2.929c3.905-3.905 3.905-10.237 0-14.143l-29-29c-3.905-3.905-10.237-3.905-14.143 0l-29 29c-3.905 3.905-3.905 10.237 0 14.143 3.905 3.905 10.237 3.905 14.143 0l11.929-11.928v371.857h-19c-5.523 0-10 4.478-10 10s4.477 10 10 10h19v19c0 5.522 4.477 10 10 10s10-4.478 10-10v-19h428.858l-11.929 11.929c-3.905 3.905-3.905 10.237 0 14.143 1.953 1.952 4.512 2.929 7.071 2.929s5.119-.977 7.071-2.929l29-29c3.905-3.906 3.905-10.238 0-14.143zm-86.071-2.929h-313.417c22.505-10.083 48.14-25.187 73.25-47.755 7.038-5.822 13.941-12.129 21.247-18.805 32.543-29.736 69.429-63.44 131.92-63.44 24.016 0 40.361 12.5 59.287 26.974 8.705 6.657 17.662 13.507 27.713 19.244z"/><path d="m433 452c-5.523 0-10 4.478-10 10 0 16.542-13.458 30-30 30h-170c-16.542 0-30-13.458-30-30 0-5.522-4.477-10-10-10s-10 4.478-10 10c0 27.57 22.43 50 50 50h170c27.57 0 50-22.43 50-50 0-5.522-4.477-10-10-10z"/><path d="m133 236h40c5.523 0 10-4.477 10-10s-4.477-10-10-10h-40c-5.523 0-10 4.477-10 10s4.477 10 10 10z"/><path d="m333 236h40c5.523 0 10-4.477 10-10s-4.477-10-10-10h-40c-5.523 0-10 4.477-10 10s4.477 10 10 10z"/><circle cx="313.518" cy="112.01" r="10"/></g></g></svg>