<svg width="268" height="169" viewBox="0 0 268 169" fill="none" xmlns="http://www.w3.org/2000/svg">
<rect y="61" width="247" height="64" rx="30" fill="#AEC9FF"/>
<rect x="67" y="24" width="128" height="44" rx="22" fill="#AEC9FF"/>
<rect x="20" y="122" width="175" height="31" rx="15.5" fill="#AEC9FF"/>
<path fill-rule="evenodd" clip-rule="evenodd" d="M32 33C28.6863 33 26 35.6863 26 39V104C26 107.314 28.6863 110 32 110H57.3073L44.1092 126.671L83.7034 110H158C161.314 110 164 107.314 164 104V39C164 35.6863 161.314 33 158 33H32Z" fill="#3F5084"/>
<path fill-rule="evenodd" clip-rule="evenodd" d="M38 50C38 48.3431 39.3431 47 41 47H134C135.657 47 137 48.3431 137 50C137 51.6569 135.657 53 134 53H41C39.3431 53 38 51.6569 38 50Z" fill="white"/>
<path fill-rule="evenodd" clip-rule="evenodd" d="M37.7178 69.1478C37.7178 67.3829 39.1486 65.9521 40.9135 65.9521H114.416C116.181 65.9521 117.611 67.3829 117.611 69.1478C117.611 70.9128 116.181 72.3436 114.416 72.3436H40.9135C39.1486 72.3436 37.7178 70.9128 37.7178 69.1478Z" fill="white"/>
<path fill-rule="evenodd" clip-rule="evenodd" d="M37.7178 88.855C37.7178 87.3842 38.9101 86.1918 40.3809 86.1918H95.7738C97.2446 86.1918 98.4369 87.3842 98.4369 88.855C98.4369 90.3258 97.2446 91.5181 95.7738 91.5181H40.3809C38.9101 91.5181 37.7178 90.3258 37.7178 88.855Z" fill="white"/>
<path fill-rule="evenodd" clip-rule="evenodd" d="M179.972 138.707C176.435 139.895 172.647 140.539 168.708 140.539C149.216 140.539 133.416 124.771 133.416 105.321C133.416 85.8708 149.216 70.1033 168.708 70.1033C188.199 70.1033 204 85.8708 204 105.321C204 115.246 199.886 124.212 193.267 130.613L198.118 148.365L179.972 138.707Z" fill="#04D3AB"/>
<path fill-rule="evenodd" clip-rule="evenodd" d="M150.737 92.4301C150.737 90.6652 152.168 89.2344 153.933 89.2344H182.695C184.46 89.2344 185.891 90.6652 185.891 92.4301C185.891 94.1951 184.46 95.6259 182.695 95.6259H153.933C152.168 95.6259 150.737 94.1951 150.737 92.4301Z" fill="white"/>
<path fill-rule="evenodd" clip-rule="evenodd" d="M150.737 115.866C150.737 114.101 152.168 112.67 153.933 112.67H179.499C181.264 112.67 182.695 114.101 182.695 115.866C182.695 117.631 181.264 119.061 179.499 119.061H153.933C152.168 119.061 150.737 117.631 150.737 115.866Z" fill="white"/>
<path fill-rule="evenodd" clip-rule="evenodd" d="M150.737 104.148C150.737 102.383 152.168 100.952 153.933 100.952H169.912C171.677 100.952 173.108 102.383 173.108 104.148C173.108 105.913 171.677 107.344 169.912 107.344H153.933C152.168 107.344 150.737 105.913 150.737 104.148Z" fill="white"/>
<path fill-rule="evenodd" clip-rule="evenodd" d="M96.3064 123.322L96.3362 123.369L96.3064 123.322Z" fill="#0064A0"/>
<path fill-rule="evenodd" clip-rule="evenodd" d="M98.4369 120.127L96.3064 123.307L96.3163 123.322L98.4369 120.127Z" fill="#005296"/>
<path fill-rule="evenodd" clip-rule="evenodd" d="M109.234 107.344C108.794 107.759 108.398 108.158 108.024 108.548C108.54 108.115 108.961 107.708 109.234 107.344Z" fill="#1D0806"/>
<path fill-rule="evenodd" clip-rule="evenodd" d="M68.1936 102.599L67.8724 103.388L68.1954 102.601L68.1936 102.599ZM69.3697 99.7348L69.302 99.8994L69.3697 99.7348ZM69.3091 93.6046L68.7118 96.9182L69.3091 93.6063C69.3091 93.6063 69.3091 93.6063 69.3091 93.6046Z" fill="#00A871"/>
<path fill-rule="evenodd" clip-rule="evenodd" d="M180.934 51.0594H183.103C183.567 51.0594 183.897 51.1392 184.092 51.2986C184.287 51.4581 184.385 51.7227 184.385 52.0926C184.385 52.4689 184.285 52.74 184.087 52.9058C183.889 53.0716 183.561 53.1545 183.103 53.1545H176.282C175.824 53.1545 175.496 53.0716 175.298 52.9058C175.099 52.74 175 52.4689 175 52.0926C175 51.7227 175.096 51.4581 175.288 51.2986C175.479 51.1392 175.811 51.0594 176.282 51.0594H178.451V46.4101H177.311C176.86 46.4101 176.537 46.3288 176.342 46.1662C176.147 46.0035 176.049 45.7341 176.049 45.3578C176.049 44.9815 176.144 44.7136 176.332 44.5542C176.52 44.3947 176.847 44.315 177.311 44.315H180.348C180.537 44.315 180.681 44.3517 180.782 44.425C180.883 44.4984 180.934 44.5988 180.934 44.7264V51.0594ZM179.472 40C179.964 40 180.29 40.0893 180.451 40.2679C180.613 40.4464 180.693 40.8737 180.693 41.5498C180.693 42.2003 180.621 42.6037 180.477 42.76C180.332 42.9162 179.99 42.9943 179.452 42.9943C178.928 42.9943 178.589 42.921 178.438 42.7743C178.287 42.6276 178.211 42.3342 178.211 41.8942C178.211 41.0778 178.288 40.5581 178.443 40.3348C178.598 40.1116 178.941 40 179.472 40ZM192.566 44.5906H194.736C195.2 44.5906 195.53 44.6719 195.725 44.8345C195.92 44.9972 196.017 45.2634 196.017 45.6334C196.017 46.0033 195.918 46.2711 195.72 46.4369C195.521 46.6028 195.193 46.6857 194.736 46.6857H192.566V51.0576H194.574C195.039 51.0576 195.368 51.1373 195.563 51.2968C195.758 51.4562 195.856 51.7209 195.856 52.0908C195.856 52.4671 195.757 52.7381 195.558 52.9039C195.36 53.0698 195.032 53.1527 194.574 53.1527H189.014C188.55 53.1527 188.22 53.0698 188.025 52.9039C187.83 52.7381 187.733 52.4671 187.733 52.0908C187.733 51.7209 187.828 51.4562 188.02 51.2968C188.212 51.1373 188.543 51.0576 189.014 51.0576H190.084V46.6857H189.014C188.55 46.6857 188.22 46.6028 188.025 46.4369C187.83 46.2711 187.733 46.0033 187.733 45.6334C187.733 45.2571 187.828 44.9892 188.02 44.8298C188.212 44.6703 188.543 44.5906 189.014 44.5906H190.084V44.0453C190.084 42.7953 190.424 41.9072 191.103 41.381C191.782 40.8549 192.94 40.5918 194.574 40.5918C195.422 40.5918 196.046 40.6874 196.446 40.8788C196.846 41.0701 197.047 41.3667 197.047 41.7685C197.047 42.0363 196.957 42.25 196.779 42.4094C196.601 42.5689 196.36 42.6486 196.058 42.6486C195.836 42.6486 195.521 42.6199 195.114 42.5625C194.707 42.5051 194.423 42.4764 194.261 42.4764C193.636 42.4764 193.197 42.6087 192.945 42.8734C192.692 43.1381 192.566 43.6052 192.566 44.2749V44.5906ZM206.951 41.4641C207.085 41.4641 207.2 41.5103 207.294 41.6028C207.388 41.6952 207.435 41.8053 207.435 41.9328C207.435 42.0667 207.274 42.3952 206.951 42.9182C206.715 43.2881 206.53 43.5942 206.396 43.8366C205.851 44.7932 205.457 45.702 205.215 46.563C204.973 47.424 204.852 48.3169 204.852 49.2417C204.852 50.0708 204.949 50.8775 205.144 51.662C205.34 52.4465 205.639 53.2277 206.043 54.0058C206.258 54.4076 206.544 54.8971 206.9 55.4743C207.257 56.0515 207.435 56.4102 207.435 56.5505C207.435 56.6781 207.39 56.7849 207.299 56.871C207.208 56.9571 207.102 57.0001 206.981 57.0001C206.719 57.0001 206.414 56.8917 206.068 56.6749C205.721 56.458 205.35 56.1423 204.953 55.7278C204.038 54.7647 203.347 53.7379 202.879 52.6474C202.411 51.5568 202.178 50.4215 202.178 49.2417C202.178 48.1702 202.369 47.1386 202.753 46.1469C203.136 45.1551 203.712 44.2033 204.478 43.2913C204.976 42.7045 205.439 42.2533 205.866 41.9376C206.293 41.6219 206.655 41.4641 206.951 41.4641ZM213.649 41.9328C213.649 41.8053 213.696 41.6952 213.79 41.6028C213.885 41.5103 213.996 41.4641 214.123 41.4641C214.426 41.4641 214.794 41.6219 215.228 41.9376C215.662 42.2533 216.128 42.7045 216.626 43.2913C217.386 44.1905 217.958 45.1376 218.341 46.1325C218.725 47.1275 218.917 48.1638 218.917 49.2417C218.917 50.4215 218.685 51.5568 218.22 52.6474C217.756 53.7379 217.067 54.7647 216.152 55.7278C215.762 56.136 215.388 56.4501 215.032 56.6701C214.675 56.8901 214.366 57.0001 214.103 57.0001C213.982 57.0001 213.876 56.9571 213.785 56.871C213.695 56.7849 213.649 56.6781 213.649 56.5505C213.649 56.4102 213.814 56.0849 214.144 55.5747C214.386 55.1984 214.574 54.8923 214.709 54.6563C215.254 53.6997 215.647 52.7909 215.889 51.9299C216.132 51.0689 216.253 50.1728 216.253 49.2417C216.253 48.4062 216.155 47.5962 215.96 46.8118C215.765 46.0273 215.466 45.246 215.062 44.4679C214.84 44.047 214.549 43.5543 214.189 42.9899C213.829 42.4255 213.649 42.0731 213.649 41.9328Z" fill="#FF6B2B"/>
</svg>
