<svg width="268" height="169" viewBox="0 0 268 169" fill="none" xmlns="http://www.w3.org/2000/svg">
<rect y="60" width="247" height="64" rx="30" fill="#AEC9FF"/>
<rect x="35" y="23" width="146" height="44" rx="22" fill="#AEC9FF"/>
<rect x="85" y="121" width="110" height="31" rx="15.5" fill="#AEC9FF"/>
<rect x="24" y="31" width="188" height="113" fill="#4F5581"/>
<path fill-rule="evenodd" clip-rule="evenodd" d="M46 43.5C46 48.1944 41.9706 52 37 52C32.0294 52 28 48.1944 28 43.5C28 38.8056 32.0294 35 37 35C41.9706 35 46 38.8056 46 43.5ZM65 43.5C65 48.1944 60.9706 52 56 52C51.0294 52 47 48.1944 47 43.5C47 38.8056 51.0294 35 56 35C60.9706 35 65 38.8056 65 43.5ZM83 43.5C83 48.1944 78.9706 52 74 52C69.0294 52 65 48.1944 65 43.5C65 38.8056 69.0294 35 74 35C78.9706 35 83 38.8056 83 43.5ZM100 43.5C100 48.1944 96.1944 52 91.5 52C86.8056 52 83 48.1944 83 43.5C83 38.8056 86.8056 35 91.5 35C96.1944 35 100 38.8056 100 43.5ZM118 43.5C118 48.1944 113.971 52 109 52C104.029 52 100 48.1944 100 43.5C100 38.8056 104.029 35 109 35C113.971 35 118 38.8056 118 43.5ZM136 43.5C136 48.1944 131.971 52 127 52C122.029 52 118 48.1944 118 43.5C118 38.8056 122.029 35 127 35C131.971 35 136 38.8056 136 43.5ZM154 43.5C154 48.1944 149.971 52 145 52C140.029 52 136 48.1944 136 43.5C136 38.8056 140.029 35 145 35C149.971 35 154 38.8056 154 43.5ZM171 43.5C171 48.1944 167.194 52 162.5 52C157.806 52 154 48.1944 154 43.5C154 38.8056 157.806 35 162.5 35C167.194 35 171 38.8056 171 43.5ZM189 43.5C189 48.1944 184.971 52 180 52C175.029 52 171 48.1944 171 43.5C171 38.8056 175.029 35 180 35C184.971 35 189 38.8056 189 43.5ZM198 53C193.029 53 189 48.9706 189 44C189 43.914 189.001 43.8283 189.004 43.7429C189.001 43.6622 189 43.5812 189 43.5C189 38.8056 193.029 35 198 35C202.971 35 207 38.8056 207 43.5C207 43.5812 206.999 43.6622 206.996 43.7429C206.999 43.8283 207 43.914 207 44C207 48.9706 202.971 53 198 53ZM198 70C193.029 70 189 66.1944 189 61.5C189 56.8056 193.029 53 198 53C202.971 53 207 56.8056 207 61.5C207 66.1944 202.971 70 198 70ZM198 88C193.029 88 189 83.9706 189 79C189 74.0294 193.029 70 198 70C202.971 70 207 74.0294 207 79C207 83.9706 202.971 88 198 88ZM198 105C202.971 105 207 101.194 207 96.5C207 91.8056 202.971 88 198 88C193.029 88 189 91.8056 189 96.5C189 101.194 193.029 105 198 105ZM198 123C193.029 123 189 118.971 189 114C189 109.029 193.029 105 198 105C202.971 105 207 109.029 207 114C207 118.971 202.971 123 198 123ZM189 132C189 127.029 193.029 123 198 123C202.971 123 207 127.029 207 132C207 136.971 202.971 141 198 141C193.029 141 189 136.971 189 132ZM171 132C171 136.971 175.029 141 180 141C184.971 141 189 136.971 189 132C189 127.029 184.971 123 180 123C175.029 123 171 127.029 171 132ZM153 132C153 136.971 157.029 141 162 141C166.971 141 171 136.971 171 132C171 127.029 166.971 123 162 123C157.029 123 153 127.029 153 132ZM135 132C135 136.971 139.029 141 144 141C148.971 141 153 136.971 153 132C153 127.029 148.971 123 144 123C139.029 123 135 127.029 135 132ZM117 132C117 136.971 121.029 141 126 141C130.971 141 135 136.971 135 132C135 127.029 130.971 123 126 123C121.029 123 117 127.029 117 132ZM99 132C99 136.971 103.029 141 108 141C112.971 141 117 136.971 117 132C117 127.029 112.971 123 108 123C103.029 123 99 127.029 99 132ZM81 132C81 136.971 85.0294 141 90 141C94.9706 141 99 136.971 99 132C99 127.029 94.9706 123 90 123C85.0294 123 81 127.029 81 132ZM63 132C63 136.971 67.0294 141 72 141C76.9706 141 81 136.971 81 132C81 127.029 76.9706 123 72 123C67.0294 123 63 127.029 63 132ZM37 123C32.0294 123 28 127.029 28 132C28 136.971 32.0294 141 37 141C40.9315 141 44.2743 138.479 45.5 134.965C46.7257 138.479 50.0685 141 54 141C58.9706 141 63 136.971 63 132C63 127.029 58.9706 123 54 123C50.0685 123 46.7257 125.521 45.5 129.035C44.2743 125.521 40.9315 123 37 123ZM37 105C32.0294 105 28 109.029 28 114C28 118.971 32.0294 123 37 123C41.9706 123 46 118.971 46 114C46 109.029 41.9706 105 37 105ZM37 88C41.9706 88 46 91.8056 46 96.5C46 101.194 41.9706 105 37 105C32.0294 105 28 101.194 28 96.5C28 91.8056 32.0294 88 37 88ZM37 70C32.0294 70 28 74.0294 28 79C28 83.9706 32.0294 88 37 88C41.9706 88 46 83.9706 46 79C46 74.0294 41.9706 70 37 70ZM37 70C32.0294 70 28 66.1944 28 61.5C28 56.8056 32.0294 53 37 53C41.9706 53 46 56.8056 46 61.5C46 66.1944 41.9706 70 37 70Z" fill="#7987B5"/>
<rect x="37" y="44" width="163" height="88" fill="#F8F9FF"/>
<path d="M161 65C153.831 65 148 70.8321 148 78.0003C148 85.1686 153.831 91 161 91C168.168 91 174 85.1679 174 78.0003C174 70.8321 168.169 65 161 65ZM159.202 84.8719L153.109 78.7785L155.651 76.2383L159.202 79.7908L167.863 71.1302L170.403 73.6711L159.202 84.8719Z" fill="#35DE46"/>
<path d="M181.18 75.1938C180.735 70.7293 182.792 69.4685 181.106 66.1146C179.421 62.7623 176.46 64.0034 173.224 61.5785C169.987 59.156 171.051 56.1943 166.735 55.2118C162.418 54.2309 162.315 56.9403 157.945 57.5651C153.575 58.19 152.356 55.3879 148.844 57.6382C145.332 59.8886 147.671 61.0008 144.295 65.5015C140.919 70.0022 139.076 67.5632 137.91 71.9712C136.747 76.3807 139.929 76.4554 140.269 80.7391C140.611 85.0237 137.953 85.6698 140.343 89.8176C142.733 93.9646 144.713 91.2497 148.227 94.3536C151.741 97.4592 149.048 99.0807 154.714 100.722C160.379 102.363 158.776 99.2025 163.506 98.3702C168.236 97.5354 168.411 100.823 172.608 98.2971C176.803 95.7692 174.688 93.8026 177.156 90.4322C179.622 87.0626 182.298 88.6543 183.539 83.9626C184.779 79.2677 181.626 79.6576 181.18 75.1938ZM156.406 94.3214C147.348 91.9422 141.941 82.69 144.328 73.6587C146.712 64.6259 155.989 59.2331 165.046 61.6115C174.101 63.9916 179.508 73.2429 177.122 82.2766C174.736 91.3086 165.462 96.7022 156.406 94.3214Z" fill="#04D3AB"/>
<path fill-rule="evenodd" clip-rule="evenodd" d="M164.936 102.162C171.091 101.368 175.154 99.662 180.158 95.9049L187.843 113.733L176.534 108.406L172.92 120.492L164.936 102.162ZM136.157 113.733L143.84 96.6942C148.942 100.605 153.169 101.827 158.924 102.57L151.075 120.492L147.465 108.407L136.157 113.733Z" fill="#04D3AB"/>
<rect x="44" y="53" width="52" height="8" rx="4" fill="#4F5581"/>
<rect x="44" y="74" width="57" height="4" rx="2" fill="#4F5581"/>
<rect x="44" y="94" width="23" height="4" rx="2" fill="#4F5581"/>
<rect x="44" y="84" width="73" height="4" rx="2" fill="#4F5581"/>
<rect x="44" y="110" width="29" height="1" rx="0.5" fill="#4F5581"/>
<rect x="82" y="110" width="39" height="1" rx="0.5" fill="#4F5581"/>
<rect x="100" y="53" width="24" height="8" rx="4" fill="#4F5581"/>
<path d="M239.786 35H220V54.8351L239.786 35Z" fill="#04D3AB"/>
<path fill-rule="evenodd" clip-rule="evenodd" d="M242.001 38.1654L222.214 58.0005V38.1654H242.001ZM239.153 39.3482L223.393 55.1474V39.3482H239.153Z" fill="#005746"/>
<path fill-rule="evenodd" clip-rule="evenodd" d="M220.188 121.807H221.72C222.048 121.807 222.28 121.863 222.418 121.975C222.556 122.088 222.624 122.275 222.624 122.536C222.624 122.802 222.554 122.993 222.414 123.11C222.274 123.227 222.043 123.285 221.72 123.285H216.905C216.582 123.285 216.35 123.227 216.21 123.11C216.07 122.993 216 122.802 216 122.536C216 122.275 216.068 122.088 216.203 121.975C216.338 121.863 216.572 121.807 216.905 121.807H218.436V118.525H217.631C217.313 118.525 217.085 118.467 216.947 118.353C216.81 118.238 216.741 118.048 216.741 117.782C216.741 117.516 216.807 117.327 216.94 117.215C217.073 117.102 217.304 117.046 217.631 117.046H219.775C219.908 117.046 220.01 117.072 220.082 117.123C220.153 117.175 220.188 117.246 220.188 117.336V121.807ZM219.157 114C219.504 114 219.734 114.063 219.848 114.189C219.962 114.315 220.019 114.617 220.019 115.094C220.019 115.553 219.968 115.838 219.866 115.948C219.764 116.058 219.523 116.114 219.143 116.114C218.772 116.114 218.534 116.062 218.427 115.958C218.32 115.855 218.267 115.648 218.267 115.337C218.267 114.761 218.321 114.394 218.43 114.236C218.54 114.079 218.782 114 219.157 114ZM228.4 117.241H229.931C230.259 117.241 230.491 117.298 230.629 117.413C230.767 117.527 230.836 117.715 230.836 117.977C230.836 118.238 230.766 118.427 230.626 118.544C230.486 118.661 230.254 118.719 229.931 118.719H228.4V121.805H229.817C230.145 121.805 230.378 121.862 230.515 121.974C230.653 122.087 230.722 122.274 230.722 122.535C230.722 122.8 230.652 122.992 230.512 123.109C230.372 123.226 230.14 123.284 229.817 123.284H225.892C225.565 123.284 225.332 123.226 225.194 123.109C225.057 122.992 224.988 122.8 224.988 122.535C224.988 122.274 225.055 122.087 225.191 121.974C225.326 121.862 225.56 121.805 225.892 121.805H226.647V118.719H225.892C225.565 118.719 225.332 118.661 225.194 118.544C225.057 118.427 224.988 118.238 224.988 117.977C224.988 117.711 225.055 117.522 225.191 117.409C225.326 117.297 225.56 117.241 225.892 117.241H226.647V116.856C226.647 115.973 226.887 115.346 227.367 114.975C227.846 114.604 228.663 114.418 229.817 114.418C230.416 114.418 230.856 114.485 231.139 114.62C231.421 114.755 231.562 114.965 231.562 115.248C231.562 115.437 231.499 115.588 231.374 115.701C231.248 115.813 231.078 115.87 230.864 115.87C230.708 115.87 230.486 115.849 230.198 115.809C229.911 115.768 229.71 115.748 229.596 115.748C229.155 115.748 228.845 115.842 228.667 116.028C228.489 116.215 228.4 116.545 228.4 117.018V117.241ZM238.553 115.033C238.648 115.033 238.729 115.066 238.796 115.131C238.862 115.197 238.895 115.274 238.895 115.364C238.895 115.459 238.781 115.691 238.553 116.06C238.387 116.321 238.257 116.537 238.162 116.708C237.777 117.383 237.499 118.025 237.328 118.633C237.157 119.24 237.072 119.871 237.072 120.523C237.072 121.109 237.141 121.678 237.278 122.232C237.416 122.786 237.627 123.337 237.912 123.886C238.064 124.17 238.266 124.515 238.518 124.923C238.77 125.33 238.895 125.584 238.895 125.683C238.895 125.773 238.863 125.848 238.799 125.909C238.735 125.97 238.66 126 238.575 126C238.39 126 238.175 125.923 237.93 125.77C237.686 125.617 237.423 125.394 237.143 125.102C236.497 124.422 236.009 123.697 235.679 122.927C235.349 122.158 235.184 121.356 235.184 120.523C235.184 119.767 235.32 119.039 235.59 118.339C235.861 117.639 236.267 116.967 236.808 116.323C237.16 115.909 237.486 115.59 237.788 115.368C238.089 115.145 238.345 115.033 238.553 115.033ZM243.282 115.364C243.282 115.274 243.315 115.197 243.381 115.131C243.448 115.066 243.526 115.033 243.617 115.033C243.83 115.033 244.09 115.145 244.397 115.368C244.703 115.59 245.032 115.909 245.383 116.323C245.92 116.958 246.323 117.626 246.594 118.329C246.865 119.031 247 119.763 247 120.523C247 121.356 246.836 122.158 246.509 122.927C246.181 123.697 245.694 124.422 245.048 125.102C244.773 125.39 244.509 125.612 244.258 125.767C244.006 125.922 243.787 126 243.602 126C243.517 126 243.442 125.97 243.378 125.909C243.314 125.848 243.282 125.773 243.282 125.683C243.282 125.584 243.398 125.354 243.631 124.994C243.802 124.728 243.935 124.512 244.03 124.346C244.414 123.67 244.692 123.029 244.863 122.421C245.034 121.813 245.119 121.181 245.119 120.523C245.119 119.934 245.051 119.362 244.913 118.808C244.775 118.254 244.564 117.703 244.279 117.154C244.122 116.857 243.917 116.509 243.663 116.11C243.409 115.712 243.282 115.463 243.282 115.364Z" fill="#FF6B2B"/>
</svg>
